{"glyphs":{"0":{"ha":844,"x_min":95,"x_max":749,"o":"m 95 724 q 176 934 95 863 q 422 1005 257 1005 q 664 933 579 1005 q 749 724 749 862 l 749 261 q 664 56 749 126 q 422 -14 579 -14 q 177 56 258 -14 q 95 261 95 126 l 95 724 m 503 827 q 468 832 488 831 q 422 833 448 833 q 341 828 371 833 q 296 805 311 823 q 276 753 280 787 q 271 662 271 720 l 271 383 l 503 827 m 340 163 q 376 159 356 160 q 422 159 396 159 q 504 163 473 159 q 549 184 534 168 q 568 232 564 200 q 572 320 572 264 l 572 608 l 340 163 z "},"1":{"ha":753,"x_min":68,"x_max":686,"o":"m 448 991 q 465 975 465 991 l 465 172 l 669 172 q 686 156 686 172 l 685 16 q 681 4 685 9 q 669 0 676 0 l 84 0 q 72 4 77 0 q 68 16 68 9 l 68 156 q 72 168 68 163 q 84 172 77 172 l 288 172 l 288 819 l 128 819 q 112 836 112 819 l 112 975 q 128 991 112 991 l 448 991 z "},"2":{"ha":747,"x_min":41,"x_max":665,"o":"m 661 528 q 658 513 661 521 q 650 500 655 505 l 357 172 l 649 172 q 665 156 665 172 l 665 16 q 660 4 665 9 q 648 0 656 0 l 84 0 q 72 4 77 0 q 68 16 68 9 l 68 85 q 79 114 68 102 l 484 572 l 484 746 q 478 782 484 766 q 457 809 473 798 q 415 827 441 821 q 345 833 388 833 q 281 827 306 833 q 241 809 256 821 q 222 782 227 798 q 217 746 217 766 l 217 699 q 213 687 217 691 q 201 682 208 682 l 57 682 q 45 687 50 682 q 41 699 41 691 l 41 730 q 59 853 41 802 q 114 939 77 905 q 209 989 151 972 q 345 1005 266 1005 q 581 945 500 1005 q 661 770 661 886 l 661 528 z "},"3":{"ha":795,"x_min":54,"x_max":713,"o":"m 195 282 q 215 272 210 288 q 239 219 224 241 q 273 184 253 198 q 319 165 292 171 q 380 159 345 159 q 497 196 458 159 q 537 305 537 233 q 527 372 537 345 q 495 416 516 399 q 444 440 475 433 q 373 448 413 448 l 258 448 q 247 453 251 448 q 242 465 242 457 l 242 545 l 449 819 l 136 819 q 124 824 128 819 q 119 836 119 828 l 119 975 q 124 987 119 983 q 136 991 128 991 l 635 991 q 647 987 642 991 q 651 975 651 983 l 651 819 l 492 609 q 657 510 602 585 q 713 305 713 435 q 692 171 713 231 q 629 71 671 112 q 524 8 587 30 q 380 -14 462 -14 q 169 44 250 -14 q 56 214 87 102 q 57 227 54 222 q 66 235 60 233 l 195 282 z "},"4":{"ha":835,"x_min":68,"x_max":753,"o":"m 84 227 q 72 231 77 227 q 68 243 68 235 l 68 334 q 77 363 68 351 l 466 978 q 477 988 470 984 q 491 991 484 991 l 646 991 q 658 987 654 991 q 663 975 663 983 l 663 399 l 737 399 q 753 382 753 399 l 753 243 q 749 231 753 235 q 737 227 745 227 l 663 227 l 663 16 q 658 4 663 9 q 646 0 654 0 l 503 0 q 491 4 495 0 q 486 16 486 9 l 486 227 l 84 227 m 304 399 l 486 399 l 486 687 l 304 399 z "},"5":{"ha":871,"x_min":95,"x_max":776,"o":"m 271 266 q 311 186 271 213 q 429 159 351 159 q 509 167 476 159 q 562 193 541 176 q 591 238 582 211 q 600 304 600 266 l 600 368 q 591 437 600 410 q 562 482 582 465 q 509 507 542 499 q 429 514 477 514 q 369 509 393 514 q 328 493 345 503 q 300 468 311 483 q 279 432 289 452 l 146 432 q 130 448 130 432 l 130 975 q 146 991 130 991 l 702 991 q 718 975 718 991 l 718 836 q 702 819 718 819 l 307 819 l 307 665 q 375 681 339 675 q 449 686 410 686 q 696 610 617 686 q 776 372 776 533 l 776 288 q 753 160 776 216 q 687 65 731 104 q 579 6 644 26 q 429 -14 514 -14 q 293 3 354 -14 q 187 54 231 20 q 119 140 143 88 q 95 261 95 191 l 95 293 q 111 309 95 309 l 255 309 q 271 293 271 309 l 271 266 z "},"6":{"ha":871,"x_min":95,"x_max":776,"o":"m 95 717 q 118 843 95 789 q 185 933 142 897 q 290 987 228 969 q 429 1005 351 1005 q 552 988 494 1005 q 653 939 610 971 q 721 859 696 906 q 746 751 746 812 q 730 734 746 735 l 591 719 q 575 734 576 718 l 574 746 q 535 811 572 789 q 429 833 498 833 q 308 803 345 833 q 271 712 271 772 l 271 635 q 352 659 310 651 q 434 666 393 666 q 689 585 603 666 q 776 347 776 504 l 776 299 q 689 66 776 145 q 434 -14 603 -14 q 293 7 356 -14 q 186 67 230 28 q 119 161 142 106 q 95 286 95 216 l 95 717 m 434 496 q 314 461 356 496 q 271 359 271 427 l 271 286 q 314 191 271 223 q 434 159 356 159 q 559 191 519 159 q 600 285 600 222 l 600 359 q 558 461 600 427 q 434 496 517 496 z "},"7":{"ha":693,"x_min":27,"x_max":625,"o":"m 199 1 q 188 5 191 1 q 187 17 185 9 l 444 819 l 43 819 q 32 824 36 819 q 27 836 27 828 l 27 975 q 32 987 27 983 q 43 991 36 991 l 609 991 q 621 987 616 991 q 625 975 625 983 l 625 836 q 624 820 625 828 q 621 804 623 811 l 368 17 q 360 5 366 9 q 347 1 355 1 l 199 1 z "},"8":{"ha":886,"x_min":95,"x_max":791,"o":"m 179 536 q 148 602 159 566 q 136 678 136 637 l 136 734 q 214 937 136 868 q 443 1005 292 1005 q 672 937 594 1005 q 750 734 750 868 l 750 678 q 738 602 750 637 q 707 536 726 566 q 791 306 791 461 l 791 283 q 716 61 791 136 q 497 -14 642 -14 l 389 -14 q 169 61 243 -14 q 95 283 95 136 l 95 306 q 179 536 95 461 m 492 601 q 533 609 517 601 q 558 630 549 616 q 570 660 567 643 q 574 693 574 676 l 574 737 q 570 770 574 753 q 554 801 566 787 q 521 824 543 814 q 463 833 499 833 l 422 833 q 365 824 387 833 q 332 801 343 814 q 316 770 320 787 q 312 737 312 753 l 312 693 q 315 660 312 676 q 328 630 319 643 q 353 609 337 616 q 394 601 369 601 l 492 601 m 271 271 q 303 187 271 216 q 397 159 335 159 l 488 159 q 583 187 551 159 q 614 271 614 216 l 614 315 q 582 402 614 373 q 488 431 550 431 l 398 431 q 303 402 336 431 q 271 315 271 373 l 271 271 z "},"9":{"ha":844,"x_min":95,"x_max":749,"o":"m 95 696 q 179 927 95 849 q 429 1005 264 1005 q 668 936 587 1005 q 749 730 749 866 l 749 261 q 724 150 749 200 q 656 63 700 99 q 551 6 612 26 q 415 -14 490 -14 q 284 5 343 -14 q 183 60 224 24 q 118 144 141 95 q 95 254 95 193 q 111 271 95 270 l 252 286 q 264 283 260 287 q 269 272 269 279 l 269 262 q 278 213 271 233 q 302 181 286 193 q 346 164 319 169 q 414 159 374 159 q 490 165 460 159 q 539 183 521 170 q 565 218 557 197 q 572 273 572 240 l 572 366 q 502 346 538 352 q 429 339 465 339 q 179 409 264 339 q 95 613 95 478 l 95 696 m 427 512 q 497 517 469 512 q 542 535 525 522 q 566 569 559 548 q 572 621 572 590 l 572 705 q 567 770 572 745 q 545 809 561 795 q 501 828 530 823 q 428 833 473 833 q 349 828 380 833 q 301 808 319 823 q 278 769 284 794 q 271 705 271 745 l 271 621 q 279 569 271 590 q 304 535 286 548 q 352 517 322 523 q 427 512 382 512 z "},"\u0000":{"ha":0,"x_min":0,"x_max":0,"o":""},"\r":{"ha":347,"x_min":0,"x_max":0,"o":""}," ":{"ha":339,"x_min":0,"x_max":0,"o":""},"A":{"ha":859,"x_min":54,"x_max":808,"o":"m 68 -1 q 57 3 60 -1 q 56 15 54 7 l 301 977 q 321 992 306 992 l 538 992 q 558 977 553 992 l 804 15 q 791 -1 808 -1 l 648 -1 q 627 15 632 -1 l 568 248 l 291 248 l 232 15 q 212 -1 227 -1 l 68 -1 m 335 420 l 524 420 l 430 789 l 335 420 z "},"B":{"ha":852,"x_min":109,"x_max":757,"o":"m 416 991 q 635 926 560 991 q 709 742 709 861 l 709 707 q 696 615 709 658 q 659 538 682 573 q 731 444 705 500 q 757 317 757 388 l 757 276 q 686 71 757 141 q 471 0 614 0 l 125 0 q 113 4 117 0 q 109 16 109 9 l 109 975 q 113 987 109 983 q 125 991 117 991 l 416 991 m 462 606 q 515 631 497 606 q 533 704 533 656 l 533 726 q 508 795 533 772 q 435 819 484 819 l 285 819 l 285 606 l 462 606 m 414 172 q 492 178 460 172 q 543 198 524 184 q 572 233 563 211 q 581 286 581 255 l 581 321 q 572 374 581 353 q 543 409 563 396 q 492 428 524 422 q 414 434 460 434 l 285 434 l 285 172 l 414 172 z "},"C":{"ha":857,"x_min":95,"x_max":762,"o":"m 602 630 q 590 633 595 629 q 586 644 586 637 l 586 703 q 578 763 586 739 q 552 804 570 788 q 505 826 534 819 q 435 833 477 833 q 352 826 384 833 q 302 801 320 819 q 278 749 284 782 q 271 662 271 715 l 271 320 q 279 241 271 272 q 304 191 286 210 q 355 166 323 173 q 435 159 387 159 q 507 165 478 159 q 553 185 536 171 q 578 222 571 199 q 586 279 586 245 l 586 340 q 590 352 586 348 q 602 357 595 357 l 746 357 q 762 340 762 357 l 762 295 q 680 64 762 142 q 435 -14 597 -14 q 292 5 355 -14 q 185 59 229 24 q 118 145 141 94 q 95 261 95 196 l 95 724 q 181 934 95 863 q 435 1005 267 1005 q 680 925 597 1005 q 762 690 762 846 l 762 663 q 758 650 762 655 q 746 645 753 646 l 602 630 z "},"D":{"ha":861,"x_min":109,"x_max":766,"o":"m 125 0 q 113 4 117 0 q 109 16 109 9 l 109 975 q 113 987 109 983 q 125 991 117 991 l 507 991 q 701 924 635 991 q 766 724 766 857 l 766 261 q 701 66 766 132 q 507 0 635 0 l 125 0 m 590 309 l 590 680 q 586 754 590 726 q 568 796 582 781 q 529 815 555 810 q 461 819 504 819 l 285 819 l 285 172 l 461 172 q 530 177 504 172 q 569 195 555 181 q 586 237 582 210 q 590 309 590 264 z "},"E":{"ha":770,"x_min":109,"x_max":675,"o":"m 125 0 q 113 4 117 0 q 109 16 109 9 l 109 975 q 113 987 109 983 q 125 991 117 991 l 659 991 q 670 987 666 991 q 675 975 675 983 l 675 836 q 670 824 675 828 q 659 819 666 819 l 285 819 l 285 606 l 555 606 q 567 602 563 606 q 572 590 572 597 l 572 450 q 567 438 572 443 q 555 434 563 434 l 285 434 l 285 172 l 659 172 q 670 168 666 172 q 675 156 675 163 l 675 16 q 670 4 675 9 q 659 0 666 0 l 125 0 z "},"F":{"ha":781,"x_min":109,"x_max":700,"o":"m 125 0 q 113 4 117 0 q 109 16 109 9 l 109 975 q 113 987 109 983 q 125 991 117 991 l 684 991 q 695 987 691 991 q 700 975 700 983 l 700 836 q 695 824 700 828 q 684 819 691 819 l 285 819 l 285 572 l 616 572 q 628 568 623 572 q 632 556 632 564 l 632 416 q 628 405 632 409 q 616 400 623 400 l 285 400 l 285 16 q 280 4 285 9 q 269 0 276 0 l 125 0 z "},"G":{"ha":871,"x_min":95,"x_max":776,"o":"m 616 630 q 604 633 608 629 q 600 644 600 637 l 600 703 q 560 800 600 767 q 442 833 520 833 q 359 823 392 833 q 306 791 326 813 q 279 734 287 769 q 271 648 271 699 l 271 340 q 279 255 271 290 q 306 199 287 220 q 359 168 326 178 q 442 159 392 159 q 518 168 488 159 q 566 196 548 177 q 592 244 585 215 q 600 314 600 273 l 600 328 l 473 328 q 461 333 466 328 q 457 345 457 337 l 457 477 q 461 489 457 485 q 473 494 466 494 l 760 494 q 771 489 767 494 q 776 477 776 485 l 776 290 q 754 165 776 221 q 691 69 733 109 q 587 8 649 29 q 442 -14 524 -14 q 292 7 357 -14 q 183 66 227 28 q 117 159 140 104 q 95 281 95 214 l 95 711 q 117 835 95 780 q 183 927 139 890 q 292 985 227 965 q 442 1005 357 1005 q 691 925 607 1005 q 776 690 776 846 l 776 663 q 771 650 776 655 q 760 645 767 646 l 616 630 z "},"H":{"ha":895,"x_min":109,"x_max":787,"o":"m 125 0 q 109 16 109 0 l 109 975 q 125 991 109 991 l 269 991 q 285 975 285 991 l 285 599 l 610 599 l 610 975 q 627 991 610 991 l 770 991 q 787 975 787 991 l 787 16 q 770 0 787 0 l 627 0 q 610 16 610 0 l 610 427 l 285 427 l 285 16 q 269 0 285 0 l 125 0 z "},"I":{"ha":722,"x_min":95,"x_max":627,"o":"m 111 819 q 99 824 104 819 q 95 836 95 828 l 95 975 q 99 987 95 983 q 111 991 104 991 l 610 991 q 627 975 627 991 l 627 836 q 622 824 627 828 q 610 819 618 819 l 449 819 l 449 172 l 610 172 q 627 156 627 172 l 627 16 q 622 4 627 9 q 610 0 618 0 l 111 0 q 99 4 104 0 q 95 16 95 9 l 95 156 q 99 168 95 163 q 111 172 104 172 l 273 172 l 273 819 l 111 819 z "},"J":{"ha":790,"x_min":67,"x_max":695,"o":"m 218 302 q 236 290 234 306 q 275 200 243 228 q 370 172 307 172 l 383 172 q 487 215 454 172 q 519 351 519 258 l 519 819 l 240 819 q 228 824 233 819 q 224 836 224 828 l 224 975 q 228 987 224 983 q 240 991 233 991 l 679 991 q 691 987 686 991 q 695 975 695 983 l 695 370 q 619 91 695 182 q 383 0 543 0 l 370 0 q 156 64 232 0 q 68 252 80 127 q 72 264 67 259 q 83 271 76 270 l 218 302 z "},"K":{"ha":829,"x_min":109,"x_max":749,"o":"m 285 579 l 361 579 l 544 980 q 561 991 549 991 l 716 991 q 729 986 726 991 q 729 972 733 981 l 515 500 l 745 20 q 745 5 749 11 q 732 0 742 0 l 582 0 q 572 3 576 0 q 564 11 567 6 l 375 407 l 285 407 l 285 16 q 280 4 285 9 q 269 0 276 0 l 125 0 q 113 4 117 0 q 109 16 109 9 l 109 975 q 113 987 109 983 q 125 991 117 991 l 269 991 q 285 975 285 991 l 285 579 z "},"L":{"ha":736,"x_min":109,"x_max":661,"o":"m 125 0 q 109 16 109 0 l 109 975 q 125 991 109 991 l 269 991 q 285 975 285 991 l 285 172 l 645 172 q 661 156 661 172 l 661 16 q 645 0 661 0 l 125 0 z "},"M":{"ha":970,"x_min":109,"x_max":862,"o":"m 318 991 q 340 977 334 991 l 486 567 l 631 977 q 640 987 634 983 q 653 991 646 991 l 846 991 q 862 975 862 991 l 862 16 q 858 4 862 9 q 846 0 853 0 l 702 0 q 690 4 694 0 q 686 16 686 9 l 686 693 l 560 320 q 538 304 555 304 l 433 304 q 419 309 425 304 q 411 320 414 313 l 285 695 l 285 16 q 280 4 285 9 q 269 0 276 0 l 125 0 q 113 4 117 0 q 109 16 109 9 l 109 975 q 113 987 109 983 q 125 991 117 991 l 318 991 z "},"N":{"ha":921,"x_min":109,"x_max":812,"o":"m 125 0 q 113 4 117 0 q 109 16 109 9 l 109 975 q 113 987 109 983 q 125 991 117 991 l 285 991 l 636 361 l 636 975 q 641 987 636 983 q 652 991 645 991 l 796 991 q 808 987 804 991 q 812 975 812 983 l 812 16 q 808 4 812 9 q 796 0 804 0 l 636 0 l 285 628 l 285 16 q 280 4 285 9 q 269 0 276 0 l 125 0 z "},"O":{"ha":871,"x_min":95,"x_max":776,"o":"m 95 724 q 117 843 95 791 q 182 931 139 895 q 289 986 226 967 q 435 1005 353 1005 q 577 986 514 1005 q 684 932 640 968 q 752 844 728 896 q 776 724 776 791 l 776 261 q 752 145 776 196 q 684 58 728 94 q 577 5 640 23 q 435 -14 514 -14 q 289 5 353 -14 q 182 59 225 24 q 117 145 139 94 q 95 261 95 196 l 95 724 m 271 320 q 278 238 271 270 q 302 189 284 207 q 352 165 320 172 q 435 159 385 159 q 518 165 486 159 q 569 189 551 172 q 593 238 587 207 q 600 320 600 270 l 600 662 q 593 748 600 715 q 568 800 586 781 q 518 826 550 819 q 435 833 486 833 q 353 826 385 833 q 303 800 321 819 q 278 748 285 781 q 271 662 271 715 l 271 320 z "},"P":{"ha":831,"x_min":109,"x_max":736,"o":"m 285 16 q 280 4 285 9 q 269 0 276 0 l 125 0 q 113 4 117 0 q 109 16 109 9 l 109 975 q 113 987 109 983 q 125 991 117 991 l 525 991 q 683 940 629 991 q 736 789 736 889 l 736 490 q 683 315 736 374 q 525 255 629 255 l 285 255 l 285 16 m 285 819 l 285 427 l 496 427 q 546 444 531 427 q 560 490 560 460 l 560 757 q 546 803 560 787 q 496 819 531 819 l 285 819 z "},"Q":{"ha":871,"x_min":95,"x_max":776,"o":"m 501 -11 q 469 -13 486 -12 q 435 -14 453 -14 q 280 2 345 -14 q 174 52 215 18 q 114 137 133 85 q 95 261 95 189 l 95 724 q 114 851 95 798 q 174 938 133 904 q 280 989 215 972 q 435 1005 345 1005 q 587 989 523 1005 q 693 938 651 972 q 755 851 735 904 q 776 724 776 798 l 776 261 q 745 114 776 172 q 650 25 714 56 l 679 -36 q 680 -49 682 -43 q 671 -58 678 -55 l 567 -109 q 559 -111 563 -111 q 545 -101 550 -111 l 501 -11 m 271 320 q 276 232 271 264 q 297 184 280 200 q 347 163 314 168 q 435 159 379 159 q 524 163 492 159 q 574 184 557 168 q 595 232 591 200 q 600 320 600 264 l 600 662 q 595 753 600 720 q 573 805 590 787 q 524 828 556 823 q 435 833 491 833 q 347 828 380 833 q 298 805 315 823 q 276 753 281 787 q 271 662 271 720 l 271 320 z "},"R":{"ha":831,"x_min":109,"x_max":736,"o":"m 557 -1 q 535 14 542 -1 l 412 330 l 285 330 l 285 16 q 280 4 285 9 q 269 0 276 0 l 125 0 q 113 4 117 0 q 109 16 109 9 l 109 975 q 113 987 109 983 q 125 991 117 991 l 498 991 q 611 980 565 991 q 684 942 656 968 q 724 871 712 915 q 736 762 736 827 l 736 565 q 729 475 736 513 q 704 409 721 436 q 660 364 687 381 q 594 338 633 347 l 718 20 q 718 5 722 10 q 705 -1 714 -1 l 557 -1 m 285 819 l 285 502 l 469 502 q 537 525 513 502 q 560 591 560 547 l 560 730 q 537 797 560 774 q 469 819 513 819 l 285 819 z "},"S":{"ha":830,"x_min":81,"x_max":749,"o":"m 552 751 q 518 809 552 787 q 414 832 484 832 q 347 825 374 832 q 303 805 319 818 q 279 773 286 791 q 271 733 271 755 q 297 669 271 696 q 382 617 323 641 l 522 562 q 623 510 580 538 q 694 447 666 481 q 735 371 722 412 q 749 279 749 330 q 664 60 749 134 q 415 -14 580 -14 q 166 56 250 -14 q 81 261 81 125 l 81 283 q 86 295 81 290 q 98 299 90 299 l 241 299 q 253 295 249 299 q 258 283 258 290 l 258 261 q 414 159 258 159 q 532 185 492 159 q 572 262 572 212 q 566 308 572 288 q 546 343 560 328 q 507 373 531 359 q 446 402 482 387 l 302 460 q 148 568 200 500 q 95 724 95 635 q 176 934 95 863 q 415 1005 257 1005 q 649 941 570 1005 q 728 751 728 877 l 728 735 q 724 723 728 728 q 712 719 720 719 l 568 719 q 556 723 561 719 q 552 735 552 728 l 552 751 z "},"T":{"ha":749,"x_min":68,"x_max":681,"o":"m 302 0 q 291 4 295 0 q 286 16 286 9 l 286 819 l 84 819 q 72 824 77 819 q 68 836 68 828 l 68 975 q 72 987 68 983 q 84 991 77 991 l 665 991 q 681 975 681 991 l 681 836 q 676 824 681 828 q 665 819 672 819 l 463 819 l 463 16 q 458 4 463 9 q 446 0 454 0 l 302 0 z "},"U":{"ha":875,"x_min":95,"x_max":780,"o":"m 764 991 q 775 987 771 991 q 780 975 780 983 l 780 361 q 757 191 780 262 q 691 74 734 119 q 587 7 648 28 q 448 -14 525 -14 l 427 -14 q 289 8 351 -14 q 184 76 228 30 q 118 192 141 121 q 95 361 95 263 l 95 975 q 99 987 95 983 q 111 991 104 991 l 255 991 q 267 987 262 991 q 271 975 271 983 l 271 402 q 278 295 271 340 q 301 219 284 249 q 349 174 319 189 q 427 159 379 159 l 448 159 q 528 173 498 159 q 576 216 559 186 q 598 292 593 246 q 604 402 604 338 l 604 975 q 608 987 604 983 q 620 991 612 991 l 764 991 z "},"V":{"ha":813,"x_min":54,"x_max":762,"o":"m 55 977 q 57 988 54 984 q 68 992 60 992 l 210 992 q 229 977 226 992 l 407 201 l 584 977 q 591 988 585 984 q 604 992 596 992 l 745 992 q 758 977 762 992 l 538 15 q 519 -1 535 -1 l 295 -1 q 282 3 288 -1 q 275 15 277 7 l 55 977 z "},"W":{"ha":1170,"x_min":54,"x_max":1118,"o":"m 507 977 q 513 988 508 984 q 526 992 519 992 l 644 992 q 664 977 661 992 l 800 359 l 941 977 q 947 988 942 984 q 960 992 953 992 l 1102 992 q 1115 977 1118 992 l 895 15 q 879 -1 892 1 l 722 -1 q 709 3 715 -1 q 703 15 704 7 l 585 555 l 467 15 q 448 -1 464 -1 l 290 -1 l 290 0 q 275 15 277 2 l 55 977 q 57 988 54 984 q 68 992 60 992 l 210 992 q 229 977 226 992 l 370 360 l 507 977 z "},"X":{"ha":831,"x_min":66,"x_max":765,"o":"m 79 -1 q 69 3 71 -1 q 70 14 66 7 l 323 499 l 73 978 q 72 988 70 985 q 82 992 75 992 l 234 992 q 258 978 250 992 l 416 675 l 573 978 q 583 988 576 985 q 597 992 589 992 l 749 992 q 758 978 765 992 l 508 499 l 761 14 q 762 3 764 7 q 752 -1 760 -1 l 600 -1 q 586 3 593 -1 q 576 14 580 7 l 416 322 l 254 14 q 244 3 251 7 q 231 -1 238 -1 l 79 -1 z "},"Y":{"ha":773,"x_min":40,"x_max":736,"o":"m 315 0 q 303 4 307 0 q 298 16 298 9 l 298 387 l 43 977 q 43 988 40 984 q 53 992 45 992 l 201 992 q 224 977 218 992 l 387 587 l 549 977 q 558 988 552 984 q 572 992 564 992 l 720 992 q 730 977 736 992 l 475 387 l 475 16 q 470 4 475 9 q 458 0 466 0 l 315 0 z "},"Z":{"ha":856,"x_min":109,"x_max":747,"o":"m 747 16 q 743 4 747 9 q 731 0 739 0 l 125 0 q 113 4 117 0 q 109 16 109 9 l 109 172 l 542 819 l 125 819 q 113 824 117 819 q 109 836 109 828 l 109 975 q 113 987 109 983 q 125 991 117 991 l 731 991 q 747 975 747 991 l 747 819 l 315 172 l 731 172 q 747 156 747 172 l 747 16 z "},".":{"ha":420,"x_min":109,"x_max":312,"o":"m 125 0 q 113 4 117 0 q 109 16 109 9 l 109 183 q 113 195 109 191 q 125 199 117 199 l 296 199 q 312 183 312 199 l 312 16 q 308 4 312 9 q 296 0 303 0 l 125 0 z "},",":{"ha":390,"x_min":109,"x_max":283,"o":"m 125 -170 q 113 -165 117 -170 q 109 -153 109 -161 l 109 92 q 113 104 109 100 q 125 109 117 109 l 267 109 q 279 104 275 109 q 281 92 283 100 l 245 -153 q 227 -170 242 -170 l 125 -170 z "},"-":{"ha":692,"x_min":109,"x_max":583,"o":"m 125 408 q 113 412 117 408 q 109 424 109 416 l 109 568 q 113 579 109 575 q 125 584 117 584 l 567 584 q 583 568 583 584 l 583 424 q 579 412 583 416 q 567 408 574 408 l 125 408 z "},"+":{"ha":746,"x_min":109,"x_max":637,"o":"m 125 410 q 113 414 117 410 q 109 426 109 418 l 109 566 q 113 577 109 573 q 125 582 117 582 l 287 582 l 287 744 q 291 756 287 751 q 303 760 296 760 l 443 760 q 459 744 459 760 l 459 582 l 621 582 q 637 566 637 582 l 637 426 q 633 414 637 418 q 621 410 629 410 l 459 410 l 459 248 q 455 236 459 240 q 443 231 450 231 l 303 231 q 291 236 296 231 q 287 248 287 240 l 287 410 l 125 410 z "},"*":{"ha":717,"x_min":109,"x_max":608,"o":"m 256 734 l 109 769 l 156 913 l 295 854 l 282 1005 l 434 1005 l 421 854 l 561 913 l 608 768 l 460 734 l 559 620 l 437 531 l 358 661 l 280 531 l 157 621 l 256 734 m 358 767 l 358 768 l 358 767 z "},"^":{"ha":827,"x_min":109,"x_max":725,"o":"m 431 1005 q 446 1002 439 1005 q 458 993 454 998 l 714 711 q 713 687 725 699 l 616 591 q 605 586 611 586 q 593 591 598 586 l 414 789 l 233 591 q 222 585 229 585 q 211 590 216 585 l 114 687 q 109 699 109 692 q 113 711 109 705 l 369 993 q 381 1002 374 998 q 396 1005 389 1005 l 431 1005 z "},"˜":{"ha":1033,"x_min":108,"x_max":930,"o":"m 918 430 q 820 372 871 391 q 717 353 769 353 q 626 367 671 353 q 537 406 581 380 l 399 488 q 315 511 360 511 q 270 504 292 511 q 231 481 249 497 q 220 477 227 477 q 209 482 214 477 l 113 589 q 109 601 108 595 q 115 612 109 608 q 213 670 162 652 q 316 689 264 689 q 407 675 361 689 q 496 636 452 662 l 634 554 q 718 531 673 531 q 763 538 741 531 q 802 561 785 545 q 813 566 807 566 q 824 560 819 566 l 920 453 q 918 430 930 441 z "},"/":{"ha":672,"x_min":64,"x_max":608,"o":"m 80 -14 q 69 1 64 -14 l 420 990 q 441 1005 425 1005 l 592 1005 q 603 990 608 1005 l 252 1 q 231 -14 247 -14 l 80 -14 z "},"\\":{"ha":672,"x_min":64,"x_max":608,"o":"m 441 -14 q 420 1 425 -14 l 69 990 q 80 1005 64 1005 l 231 1005 q 252 990 247 1005 l 603 1 q 592 -14 608 -14 l 441 -14 z "},":":{"ha":420,"x_min":109,"x_max":312,"o":"m 125 577 q 113 582 117 577 q 109 593 109 586 l 109 760 q 113 772 109 768 q 125 777 117 777 l 296 777 q 308 772 303 777 q 312 760 312 768 l 312 593 q 308 582 312 586 q 296 577 303 577 l 125 577 m 125 215 q 113 219 117 215 q 109 231 109 224 l 109 398 q 113 410 109 406 q 125 414 117 414 l 296 414 q 308 410 303 414 q 312 398 312 406 l 312 231 q 308 219 312 224 q 296 215 303 215 l 125 215 z "},";":{"ha":420,"x_min":109,"x_max":312,"o":"m 125 577 q 113 582 117 577 q 109 593 109 586 l 109 760 q 113 772 109 768 q 125 777 117 777 l 296 777 q 308 772 303 777 q 312 760 312 768 l 312 593 q 308 582 312 586 q 296 577 303 577 l 125 577 m 125 147 q 113 152 117 147 q 109 163 109 156 l 109 398 q 113 410 109 406 q 125 414 117 414 l 296 414 q 307 410 303 414 q 309 399 310 406 l 261 163 q 254 152 260 156 q 241 147 249 147 l 125 147 z "},"<":{"ha":665,"x_min":109,"x_max":562,"o":"m 114 484 q 109 496 109 490 q 114 507 109 502 l 429 823 q 440 828 434 828 q 452 823 446 828 l 551 727 q 556 715 556 722 q 551 704 556 709 l 343 496 l 551 288 q 551 264 562 276 l 451 170 q 439 165 446 165 q 428 170 433 165 l 114 484 z "},"=":{"ha":665,"x_min":109,"x_max":556,"o":"m 125 574 q 113 578 117 574 q 109 590 109 583 l 109 727 q 113 739 109 734 q 125 743 117 743 l 540 743 q 552 739 547 743 q 556 727 556 734 l 556 590 q 552 578 556 583 q 540 574 547 574 l 125 574 m 125 248 q 113 253 117 248 q 109 264 109 257 l 109 401 q 113 413 109 409 q 125 418 117 418 l 540 418 q 552 413 547 418 q 556 401 556 409 l 556 264 q 552 253 556 257 q 540 248 547 248 l 125 248 z "},">":{"ha":665,"x_min":109,"x_max":562,"o":"m 237 170 q 225 165 232 165 q 214 170 218 165 l 114 264 q 109 276 109 270 q 114 288 109 282 l 321 496 l 114 704 q 109 715 109 709 q 114 727 109 722 l 213 823 q 224 828 218 828 q 236 823 231 828 l 551 507 q 551 484 562 496 l 237 170 z "},"!":{"ha":407,"x_min":109,"x_max":298,"o":"m 275 991 q 291 975 291 991 l 291 286 q 287 274 291 279 q 275 270 282 270 l 131 270 q 119 274 123 270 q 115 286 115 279 l 115 975 q 119 987 115 983 q 131 991 123 991 l 275 991 m 145 0 q 119 10 129 0 q 109 37 109 20 l 109 136 q 119 162 109 152 q 145 172 129 172 l 262 172 q 288 162 278 172 q 298 136 298 152 l 298 37 q 288 10 298 20 q 262 0 278 0 l 145 0 z "},"?":{"ha":837,"x_min":109,"x_max":728,"o":"m 285 671 q 280 660 285 664 q 269 655 276 655 l 125 655 q 113 660 117 655 q 109 671 109 664 l 109 730 q 131 852 109 800 q 193 938 153 903 q 289 988 233 972 q 412 1005 345 1005 q 541 985 482 1005 q 641 930 599 966 q 705 845 682 895 q 728 736 728 795 l 728 696 q 724 636 728 663 q 711 585 720 608 q 688 539 703 561 q 654 497 674 518 l 547 383 q 530 365 536 372 q 520 348 524 357 q 516 329 517 340 q 515 302 515 318 l 515 270 q 510 258 515 262 q 498 254 506 254 l 355 254 q 343 258 347 254 q 338 270 338 262 l 338 300 q 354 397 338 351 q 408 484 369 442 l 515 600 q 546 655 540 625 q 552 718 552 685 l 552 728 q 546 767 552 748 q 525 800 541 786 q 483 823 509 814 q 413 832 456 832 q 349 824 374 832 q 309 801 323 815 q 290 769 295 787 q 285 732 285 751 l 285 671 m 368 0 q 341 10 351 0 q 331 37 331 20 l 331 140 q 341 166 331 156 q 368 176 351 176 l 484 176 q 511 166 500 176 q 521 140 521 156 l 521 37 q 511 10 521 20 q 484 0 500 0 l 368 0 z "},"'":{"ha":419,"x_min":109,"x_max":311,"o":"m 151 650 q 139 654 144 650 q 134 666 134 659 l 109 975 q 113 987 109 983 q 124 991 117 991 l 295 991 q 307 987 302 991 q 310 975 311 983 l 286 666 q 280 654 285 659 q 268 650 275 650 l 151 650 z "},"\"":{"ha":741,"x_min":109,"x_max":633,"o":"m 151 650 q 139 654 144 650 q 134 666 134 659 l 109 975 q 113 987 109 983 q 124 991 117 991 l 295 991 q 307 987 302 991 q 310 975 311 983 l 286 666 q 280 654 285 659 q 268 650 275 650 l 151 650 m 473 650 q 461 654 466 650 q 456 666 456 659 l 431 975 q 435 987 431 983 q 446 991 439 991 l 617 991 q 629 987 625 991 q 632 975 633 983 l 608 666 q 602 654 607 659 q 590 650 597 650 l 473 650 z "},"#":{"ha":1068,"x_min":64,"x_max":1031,"o":"m 486 105 l 541 258 l 383 258 l 329 105 l 153 105 l 207 258 l 64 258 l 123 424 l 266 424 l 314 559 l 171 559 l 230 725 l 372 725 l 430 887 l 606 887 l 549 725 l 706 725 l 764 887 l 940 887 l 882 725 l 1031 725 l 972 559 l 824 559 l 776 424 l 925 424 l 866 258 l 717 258 l 663 105 l 486 105 m 442 424 l 600 424 l 648 559 l 490 559 l 442 424 z "},"@":{"ha":1413,"x_min":132,"x_max":1277,"o":"m 801 422 l 705 422 q 618 400 647 422 q 589 338 589 379 q 618 277 589 298 q 705 256 647 256 l 801 256 l 801 422 m 454 683 q 551 830 485 780 q 709 880 616 880 q 814 864 767 880 q 895 818 861 848 q 946 744 928 787 q 964 648 964 701 l 964 256 q 1021 263 994 256 q 1068 285 1048 271 q 1102 320 1089 299 q 1114 368 1114 340 l 1114 691 q 1038 915 1114 839 q 814 991 962 991 l 814 991 l 595 991 l 595 991 q 370 915 446 991 q 294 691 294 839 l 294 300 q 370 76 294 152 q 595 0 446 0 l 961 0 q 973 -4 968 0 q 977 -16 977 -9 l 977 -142 q 973 -154 977 -150 q 961 -159 968 -159 l 595 -159 q 250 -42 368 -159 q 132 300 132 75 l 132 691 q 250 1033 132 916 q 595 1149 368 1149 l 595 1150 l 814 1150 l 814 1149 q 1159 1033 1042 1149 q 1277 691 1277 916 l 1277 368 q 1257 261 1277 308 q 1199 183 1236 215 q 1108 133 1161 151 q 991 112 1055 115 l 991 111 l 703 111 q 496 171 567 111 q 426 349 426 231 q 496 522 426 463 q 703 581 567 581 l 801 581 l 801 643 q 777 699 801 680 q 705 718 752 718 q 611 664 629 718 q 602 657 609 657 l 460 675 q 454 683 452 676 z "},"$":{"ha":803,"x_min":109,"x_max":776,"o":"m 579 751 q 565 793 579 774 q 520 821 550 811 l 520 569 l 549 558 q 642 511 600 538 q 713 449 684 484 q 760 372 743 414 q 776 281 776 330 q 711 81 776 154 q 520 -9 646 8 l 520 -148 q 516 -160 520 -155 q 504 -164 511 -164 l 387 -164 q 375 -160 380 -164 q 371 -148 371 -155 l 371 -9 q 175 73 241 5 q 109 261 109 141 l 109 283 q 113 295 109 290 q 125 299 117 299 l 269 299 q 280 295 276 299 q 285 283 285 290 l 285 261 q 371 165 285 184 l 371 441 l 330 456 q 249 498 287 473 q 182 557 210 524 q 138 633 155 591 q 122 724 122 675 q 185 916 122 846 q 371 1001 248 985 l 371 1140 q 375 1152 371 1147 q 387 1156 380 1156 l 504 1156 q 516 1152 511 1156 q 520 1140 520 1147 l 520 1000 q 696 922 636 985 q 755 751 755 860 l 755 735 q 751 723 755 728 q 739 719 747 719 l 595 719 q 584 723 588 719 q 579 735 579 728 l 579 751 m 371 824 q 315 789 331 813 q 298 733 298 766 q 316 677 298 703 q 371 631 334 652 l 371 824 m 520 168 q 600 262 600 190 q 596 294 600 279 q 585 323 593 309 q 561 351 576 338 q 520 379 545 365 l 520 168 z "},"€":{"ha":794,"x_min":0,"x_max":0,"o":""},"%":{"ha":1273,"x_min":81,"x_max":1192,"o":"m 81 773 q 141 945 81 885 q 313 1005 201 1005 q 484 945 425 1005 q 544 773 544 885 q 484 602 544 662 q 313 541 425 541 q 141 602 201 541 q 81 773 81 662 m 225 -14 l 858 1005 l 1044 1005 l 411 -14 l 225 -14 m 214 771 q 310 673 214 673 q 406 771 406 673 q 310 866 406 866 q 214 771 214 866 m 729 218 q 789 390 729 330 q 961 450 849 450 q 1132 390 1072 450 q 1192 218 1192 330 q 1132 47 1192 107 q 961 -14 1072 -14 q 789 47 849 -14 q 729 218 729 107 m 861 216 q 958 119 861 119 q 1053 216 1053 119 q 958 311 1053 311 q 861 216 861 311 z "},"&":{"ha":939,"x_min":95,"x_max":857,"o":"m 857 397 q 830 257 857 323 q 754 138 802 191 l 850 0 l 640 0 l 616 35 q 519 -1 570 12 q 415 -14 468 -14 q 284 6 343 -14 q 183 60 225 25 q 118 144 141 95 q 95 254 95 194 q 104 318 95 286 q 135 384 113 351 q 191 453 156 418 q 277 528 226 489 l 215 618 q 172 708 184 663 q 163 797 159 754 q 186 878 168 840 q 238 944 205 916 q 315 989 271 972 q 415 1005 360 1005 q 523 988 473 1005 q 607 941 572 972 q 662 865 642 909 q 682 765 682 821 q 642 621 682 689 q 524 495 602 553 l 513 488 l 650 290 q 673 334 665 311 q 681 381 681 357 l 681 418 q 685 430 681 426 q 697 435 690 435 l 841 435 q 853 430 848 435 q 857 418 857 426 l 857 397 m 429 640 q 488 699 471 670 q 505 765 505 728 q 481 815 505 797 q 416 833 458 833 q 371 821 388 833 q 347 791 353 810 q 346 749 341 772 q 366 702 350 726 l 416 630 l 429 640 m 375 385 q 322 342 342 360 q 291 308 302 323 q 275 278 279 292 q 271 245 271 263 q 308 181 271 203 q 415 159 345 159 q 465 164 439 159 q 515 181 490 170 l 375 385 z "},"(":{"ha":546,"x_min":109,"x_max":437,"o":"m 437 -156 q 433 -168 437 -163 q 421 -170 429 -172 q 188 -42 267 -151 q 109 260 109 67 l 109 734 q 188 1034 109 926 q 421 1162 267 1142 q 433 1159 429 1163 q 437 1147 437 1155 l 437 1008 q 421 988 437 992 q 319 909 354 972 q 285 741 285 846 l 285 242 q 319 80 285 140 q 421 3 354 19 q 437 -16 437 -1 l 437 -156 z "},")":{"ha":546,"x_min":109,"x_max":437,"o":"m 109 -16 q 125 3 109 -1 q 227 80 192 19 q 261 242 261 140 l 261 741 q 227 909 261 846 q 125 988 192 972 q 109 1008 109 992 l 109 1147 q 113 1159 109 1155 q 125 1162 117 1163 q 358 1034 279 1142 q 437 734 437 926 l 437 260 q 358 -42 437 67 q 125 -170 279 -151 q 113 -168 117 -172 q 109 -156 109 -163 l 109 -16 z "},"{":{"ha":642,"x_min":109,"x_max":533,"o":"m 109 576 q 113 588 109 583 q 125 592 117 592 q 158 596 143 593 q 182 605 172 599 q 198 623 193 612 q 203 650 203 633 l 203 783 q 283 1047 203 951 q 517 1162 362 1143 q 529 1159 524 1163 q 533 1147 533 1155 l 533 1008 q 517 988 533 992 q 416 924 450 973 q 380 795 381 876 l 380 574 q 367 519 380 540 q 323 496 353 499 q 367 472 353 492 q 380 417 380 452 l 380 197 q 416 67 381 116 q 517 3 450 18 q 533 -16 533 -1 l 533 -156 q 529 -168 533 -163 q 517 -170 524 -172 q 283 -55 362 -151 q 203 209 203 41 l 203 361 q 198 389 203 378 q 182 406 193 399 q 158 416 172 413 q 125 420 143 419 q 113 424 117 420 q 109 436 109 429 l 109 576 z "},"|":{"ha":448,"x_min":136,"x_max":312,"o":"m 152 -164 q 140 -160 144 -164 q 136 -148 136 -155 l 136 1140 q 140 1152 136 1147 q 152 1156 144 1156 l 296 1156 q 308 1152 303 1156 q 312 1140 312 1147 l 312 -148 q 308 -160 312 -155 q 296 -164 303 -164 l 152 -164 z "},"}":{"ha":642,"x_min":109,"x_max":533,"o":"m 533 436 q 529 424 533 429 q 517 420 524 420 q 484 416 498 419 q 459 406 469 413 q 444 389 449 399 q 438 361 438 378 l 438 209 q 359 -55 438 41 q 125 -170 280 -151 q 113 -168 117 -172 q 109 -156 109 -163 l 109 -16 q 125 3 109 -1 q 226 67 192 18 q 261 197 260 116 l 262 417 q 275 472 262 452 q 319 496 288 492 q 275 519 288 499 q 262 574 262 540 l 261 795 q 226 924 260 876 q 125 988 192 973 q 109 1008 109 992 l 109 1147 q 113 1159 109 1155 q 125 1162 117 1163 q 359 1047 280 1143 q 438 783 438 951 l 438 650 q 444 623 438 633 q 459 605 449 612 q 484 596 469 599 q 517 592 498 593 q 529 588 524 592 q 533 576 533 583 l 533 436 z "},"[":{"ha":609,"x_min":136,"x_max":500,"o":"m 312 991 l 312 0 l 484 0 q 496 -4 492 0 q 500 -16 500 -9 l 500 -156 q 496 -168 500 -163 q 484 -172 492 -172 l 152 -172 q 140 -168 144 -172 q 136 -156 136 -163 l 136 1147 q 140 1159 136 1155 q 152 1164 144 1164 l 484 1164 q 496 1159 492 1164 q 500 1147 500 1155 l 500 1008 q 496 996 500 1000 q 484 991 492 991 l 312 991 z "},"]":{"ha":609,"x_min":109,"x_max":473,"o":"m 125 991 q 113 996 117 991 q 109 1008 109 1000 l 109 1147 q 113 1159 109 1155 q 125 1164 117 1164 l 457 1164 q 469 1159 465 1164 q 473 1147 473 1155 l 473 -156 q 469 -168 473 -163 q 457 -172 465 -172 l 125 -172 q 113 -168 117 -172 q 109 -156 109 -163 l 109 -16 q 113 -4 109 -9 q 125 0 117 0 l 297 0 l 297 991 l 125 991 z "},"‘":{"ha":383,"x_min":108,"x_max":276,"o":"m 259 991 q 275 975 276 991 l 262 770 q 258 759 262 763 q 245 754 253 754 l 122 754 q 111 758 115 754 q 109 770 108 762 l 157 976 q 163 987 158 983 q 176 991 169 991 l 259 991 z "},"’":{"ha":385,"x_min":109,"x_max":278,"o":"m 125 754 q 113 759 117 754 q 109 770 109 763 l 121 975 q 138 991 123 991 l 262 991 q 275 976 278 991 l 227 770 q 208 754 224 754 l 125 754 z "},"“":{"ha":621,"x_min":108,"x_max":513,"o":"m 259 991 q 275 975 276 991 l 262 770 q 258 759 262 763 q 245 754 253 754 l 122 754 q 111 758 115 754 q 109 770 108 762 l 157 976 q 163 987 158 983 q 176 991 169 991 l 259 991 m 496 991 q 512 975 513 991 l 500 770 q 495 759 500 763 q 483 754 490 754 l 359 754 q 349 758 352 754 q 347 770 345 762 l 394 976 q 401 987 395 983 q 414 991 406 991 l 496 991 z "},"”":{"ha":622,"x_min":109,"x_max":515,"o":"m 125 754 q 113 759 117 754 q 109 770 109 763 l 121 975 q 138 991 123 991 l 262 991 q 275 976 278 991 l 227 770 q 208 754 224 754 l 125 754 m 362 754 q 351 759 355 754 q 347 770 347 763 l 359 975 q 376 991 360 991 l 499 991 q 512 976 515 991 l 465 770 q 445 754 461 754 l 362 754 z "},"‚":{"ha":347,"x_min":0,"x_max":0,"o":""},"„":{"ha":578,"x_min":0,"x_max":0,"o":""},"•":{"ha":631,"x_min":109,"x_max":522,"o":"m 109 494 q 162 647 109 593 q 315 701 216 701 q 468 647 414 701 q 522 494 522 593 q 468 341 522 395 q 315 288 414 288 q 162 341 216 288 q 109 494 109 395 z "},"_":{"ha":760,"x_min":109,"x_max":651,"o":"m 125 -271 q 113 -267 117 -271 q 109 -255 109 -262 l 109 -111 q 113 -99 109 -104 q 125 -95 117 -95 l 635 -95 q 647 -99 642 -95 q 651 -111 651 -104 l 651 -255 q 635 -271 651 -271 l 125 -271 z "},"–":{"ha":760,"x_min":109,"x_max":651,"o":"m 125 408 q 113 412 117 408 q 109 424 109 416 l 109 568 q 113 579 109 575 q 125 584 117 584 l 635 584 q 651 568 651 584 l 651 424 q 647 412 651 416 q 635 408 642 408 l 125 408 z "},"—":{"ha":895,"x_min":109,"x_max":787,"o":"m 125 408 q 113 412 117 408 q 109 424 109 416 l 109 568 q 113 579 109 575 q 125 584 117 584 l 770 584 q 787 568 787 584 l 787 424 q 782 412 787 416 q 770 408 778 408 l 125 408 z "},"¯":{"ha":694,"x_min":0,"x_max":0,"o":""},"¬":{"ha":5405,"x_min":109,"x_max":5296,"o":"m 3394 1811 l 3570 1811 l 3570 -819 l 3394 -819 l 3394 1811 m 2260 630 q 2248 633 2253 629 q 2244 644 2244 637 l 2244 703 q 2204 800 2244 767 q 2087 833 2165 833 q 2003 823 2037 833 q 1951 791 1970 813 q 1924 734 1931 769 q 1916 648 1916 699 l 1916 340 q 1924 255 1916 290 q 1951 199 1931 220 q 2003 168 1970 178 q 2087 159 2037 159 q 2162 168 2132 159 q 2211 196 2193 177 q 2237 244 2229 215 q 2244 314 2244 273 l 2244 328 l 2118 328 q 2106 333 2110 328 q 2102 345 2102 337 l 2102 477 q 2106 489 2102 485 q 2118 494 2110 494 l 2404 494 q 2416 489 2412 494 q 2420 477 2420 485 l 2420 290 q 2399 165 2420 221 q 2336 69 2378 109 q 2231 8 2294 29 q 2087 -14 2169 -14 q 1937 7 2001 -14 q 1828 66 1872 28 q 1762 159 1784 104 q 1740 281 1740 214 l 1740 711 q 1762 835 1740 780 q 1827 927 1784 890 q 1936 985 1871 965 q 2087 1005 2001 1005 q 2336 925 2252 1005 q 2420 690 2420 846 l 2420 663 q 2416 650 2420 655 q 2404 645 2412 646 l 2260 630 m 125 0 q 113 4 117 0 q 109 16 109 9 l 109 975 q 113 987 109 983 q 125 991 117 991 l 659 991 q 670 987 666 991 q 675 975 675 983 l 675 836 q 670 824 675 828 q 659 819 666 819 l 285 819 l 285 606 l 555 606 q 567 602 563 606 q 572 590 572 597 l 572 450 q 567 438 572 443 q 555 434 563 434 l 285 434 l 285 172 l 659 172 q 670 168 666 172 q 675 156 675 163 l 675 16 q 670 4 675 9 q 659 0 666 0 l 125 0 m 908 0 q 896 4 901 0 q 892 16 892 9 l 892 975 q 896 987 892 983 q 908 991 901 991 l 1291 991 q 1484 924 1419 991 q 1550 724 1550 857 l 1550 261 q 1484 66 1550 132 q 1291 0 1419 0 l 908 0 m 2640 0 q 2628 4 2633 0 q 2624 16 2624 9 l 2624 975 q 2628 987 2624 983 q 2640 991 2633 991 l 3174 991 q 3186 987 3181 991 q 3190 975 3190 983 l 3190 836 q 3186 824 3190 828 q 3174 819 3181 819 l 2800 819 l 2800 606 l 3071 606 q 3083 602 3078 606 q 3087 590 3087 597 l 3087 450 q 3083 438 3087 443 q 3071 434 3078 434 l 2800 434 l 2800 172 l 3174 172 q 3186 168 3181 172 q 3190 156 3190 163 l 3190 16 q 3186 4 3190 9 q 3174 0 3181 0 l 2640 0 m 3803 0 q 3791 4 3796 0 q 3787 16 3787 9 l 3787 975 q 3791 987 3787 983 q 3803 991 3796 991 l 4186 991 q 4379 924 4314 991 q 4445 724 4445 857 l 4445 261 q 4379 66 4445 132 q 4186 0 4314 0 l 3803 0 m 5198 538 q 5271 444 5245 500 q 5296 317 5296 388 l 5296 276 q 5225 71 5296 141 q 5010 0 5154 0 l 4664 0 q 4653 4 4657 0 q 4648 16 4648 9 l 4648 975 q 4653 987 4648 983 q 4664 991 4657 991 l 4956 991 q 5174 926 5100 991 q 5249 742 5249 861 l 5249 707 q 5235 615 5249 658 q 5198 538 5222 573 m 4824 606 l 5001 606 q 5055 631 5037 606 q 5073 704 5073 656 l 5073 726 q 5048 795 5073 772 q 4974 819 5023 819 l 4824 819 l 4824 606 m 1373 309 l 1373 680 q 1369 754 1373 726 q 1352 796 1365 781 q 1313 815 1338 810 q 1244 819 1287 819 l 1068 819 l 1068 172 l 1244 172 q 1313 177 1287 172 q 1352 195 1339 181 q 1369 237 1365 210 q 1373 309 1373 264 m 4268 309 l 4268 680 q 4264 754 4268 726 q 4247 796 4260 781 q 4208 815 4233 810 q 4140 819 4182 819 l 3963 819 l 3963 172 l 4140 172 q 4208 177 4182 172 q 4247 195 4234 181 q 4264 237 4260 210 q 4268 309 4268 264 m 4824 172 l 4954 172 q 5032 178 5000 172 q 5083 198 5063 184 q 5111 233 5103 211 q 5120 286 5120 255 l 5120 321 q 5111 374 5120 353 q 5083 409 5103 396 q 5032 428 5063 422 q 4954 434 5000 434 l 4824 434 l 4824 172 z "},"™":{"ha":1074,"x_min":0,"x_max":0,"o":""},"®":{"ha":1156,"x_min":0,"x_max":0,"o":""},"©":{"ha":1156,"x_min":0,"x_max":0,"o":""},"¤":{"ha":794,"x_min":0,"x_max":0,"o":""},"¢":{"ha":794,"x_min":0,"x_max":0,"o":""},"£":{"ha":794,"x_min":0,"x_max":0,"o":""},"¥":{"ha":794,"x_min":0,"x_max":0,"o":""},"ƒ":{"ha":575,"x_min":0,"x_max":0,"o":""},"−":{"ha":794,"x_min":0,"x_max":0,"o":""},"±":{"ha":794,"x_min":0,"x_max":0,"o":""},"×":{"ha":794,"x_min":0,"x_max":0,"o":""},"÷":{"ha":794,"x_min":0,"x_max":0,"o":""},"¦":{"ha":765,"x_min":0,"x_max":0,"o":""},"…":{"ha":1099,"x_min":0,"x_max":0,"o":""},"·":{"ha":372,"x_min":0,"x_max":0,"o":""},"¿":{"ha":603,"x_min":0,"x_max":0,"o":""},"°":{"ha":595,"x_min":0,"x_max":0,"o":""},"ª":{"ha":496,"x_min":0,"x_max":0,"o":""},"º":{"ha":522,"x_min":0,"x_max":0,"o":""},"¹":{"ha":486,"x_min":0,"x_max":0,"o":""},"²":{"ha":486,"x_min":0,"x_max":0,"o":""},"³":{"ha":677,"x_min":0,"x_max":0,"o":""},"⁄":{"ha":180,"x_min":0,"x_max":0,"o":""},"¼":{"ha":794,"x_min":0,"x_max":0,"o":""},"½":{"ha":1071,"x_min":0,"x_max":0,"o":""},"¾":{"ha":1084,"x_min":0,"x_max":0,"o":""},"‰":{"ha":1634,"x_min":0,"x_max":0,"o":""},"μ":{"ha":865,"x_min":0,"x_max":0,"o":""},"¶":{"ha":909,"x_min":0,"x_max":0,"o":""},"§":{"ha":713,"x_min":0,"x_max":0,"o":""},"†":{"ha":711,"x_min":0,"x_max":0,"o":""},"‡":{"ha":711,"x_min":0,"x_max":0,"o":""},"~":{"ha":1033,"x_min":108,"x_max":930,"o":"m 918 430 q 820 372 871 391 q 717 353 769 353 q 626 367 671 353 q 537 406 581 380 l 399 488 q 315 511 360 511 q 270 504 292 511 q 231 481 249 497 q 220 477 227 477 q 209 482 214 477 l 113 589 q 109 601 108 595 q 115 612 109 608 q 213 670 162 652 q 316 689 264 689 q 407 675 361 689 q 496 636 452 662 l 634 554 q 718 531 673 531 q 763 538 741 531 q 802 561 785 545 q 813 566 807 566 q 824 560 819 566 l 920 453 q 918 430 930 441 z "},"‹":{"ha":431,"x_min":0,"x_max":0,"o":""},"›":{"ha":431,"x_min":0,"x_max":0,"o":""},"«":{"ha":707,"x_min":0,"x_max":0,"o":""},"»":{"ha":707,"x_min":0,"x_max":0,"o":""},"˘":{"ha":543,"x_min":0,"x_max":0,"o":""},"˙":{"ha":254,"x_min":0,"x_max":0,"o":""},"˚":{"ha":416,"x_min":0,"x_max":0,"o":""},"˝":{"ha":610,"x_min":0,"x_max":0,"o":""},"˛":{"ha":340,"x_min":0,"x_max":0,"o":""},"ˇ":{"ha":581,"x_min":0,"x_max":0,"o":""},"ı":{"ha":358,"x_min":0,"x_max":0,"o":""},"`":{"ha":460,"x_min":52,"x_max":373,"o":"m 246 720 q 232 724 239 720 q 221 734 225 728 l 56 978 q 54 988 52 984 q 63 991 56 991 l 248 991 q 270 977 264 991 l 366 735 q 356 720 373 720 l 246 720 z "},"ˆ":{"ha":581,"x_min":0,"x_max":0,"o":""},"¨":{"ha":806,"x_min":0,"x_max":0,"o":""},"´":{"ha":390,"x_min":0,"x_max":0,"o":""},"¸":{"ha":313,"x_min":0,"x_max":0,"o":""},"Þ":{"ha":840,"x_min":0,"x_max":0,"o":""},"þ":{"ha":854,"x_min":0,"x_max":0,"o":""},"ß":{"ha":876,"x_min":0,"x_max":0,"o":""},"ð":{"ha":840,"x_min":0,"x_max":0,"o":""},"À":{"ha":888,"x_min":0,"x_max":0,"o":""},"Á":{"ha":888,"x_min":0,"x_max":0,"o":""},"Â":{"ha":888,"x_min":0,"x_max":0,"o":""},"Ã":{"ha":888,"x_min":0,"x_max":0,"o":""},"Ä":{"ha":888,"x_min":0,"x_max":0,"o":""},"Å":{"ha":888,"x_min":0,"x_max":0,"o":""},"Æ":{"ha":1223,"x_min":0,"x_max":0,"o":""},"Ç":{"ha":878,"x_min":0,"x_max":0,"o":""},"Ð":{"ha":1014,"x_min":0,"x_max":0,"o":""},"Đ":{"ha":1014,"x_min":0,"x_max":0,"o":""},"È":{"ha":772,"x_min":0,"x_max":0,"o":""},"É":{"ha":772,"x_min":0,"x_max":0,"o":""},"Ê":{"ha":772,"x_min":0,"x_max":0,"o":""},"Ë":{"ha":772,"x_min":0,"x_max":0,"o":""},"Ì":{"ha":471,"x_min":0,"x_max":0,"o":""},"Í":{"ha":471,"x_min":0,"x_max":0,"o":""},"Î":{"ha":471,"x_min":0,"x_max":0,"o":""},"Ï":{"ha":471,"x_min":0,"x_max":0,"o":""},"Ł":{"ha":728,"x_min":0,"x_max":0,"o":""},"Ñ":{"ha":1055,"x_min":0,"x_max":0,"o":""},"Ò":{"ha":1084,"x_min":0,"x_max":0,"o":""},"Ó":{"ha":1084,"x_min":0,"x_max":0,"o":""},"Ô":{"ha":1084,"x_min":0,"x_max":0,"o":""},"Õ":{"ha":1084,"x_min":0,"x_max":0,"o":""},"Ö":{"ha":1084,"x_min":0,"x_max":0,"o":""},"Ø":{"ha":1084,"x_min":0,"x_max":0,"o":""},"Œ":{"ha":1289,"x_min":0,"x_max":0,"o":""},"Š":{"ha":762,"x_min":0,"x_max":0,"o":""},"Ù":{"ha":1015,"x_min":0,"x_max":0,"o":""},"Ú":{"ha":1015,"x_min":0,"x_max":0,"o":""},"Û":{"ha":1015,"x_min":0,"x_max":0,"o":""},"Ü":{"ha":1015,"x_min":0,"x_max":0,"o":""},"Ÿ":{"ha":786,"x_min":0,"x_max":0,"o":""},"Ý":{"ha":786,"x_min":0,"x_max":0,"o":""},"Ž":{"ha":794,"x_min":0,"x_max":0,"o":""},"à":{"ha":779,"x_min":0,"x_max":0,"o":""},"á":{"ha":779,"x_min":0,"x_max":0,"o":""},"â":{"ha":779,"x_min":0,"x_max":0,"o":""},"ã":{"ha":779,"x_min":0,"x_max":0,"o":""},"ä":{"ha":779,"x_min":0,"x_max":0,"o":""},"å":{"ha":779,"x_min":0,"x_max":0,"o":""},"æ":{"ha":1200,"x_min":0,"x_max":0,"o":""},"ç":{"ha":667,"x_min":0,"x_max":0,"o":""},"đ":{"ha":857,"x_min":0,"x_max":0,"o":""},"è":{"ha":783,"x_min":0,"x_max":0,"o":""},"é":{"ha":783,"x_min":0,"x_max":0,"o":""},"ê":{"ha":783,"x_min":0,"x_max":0,"o":""},"ë":{"ha":783,"x_min":0,"x_max":0,"o":""},"ì":{"ha":358,"x_min":0,"x_max":0,"o":""},"í":{"ha":358,"x_min":0,"x_max":0,"o":""},"î":{"ha":358,"x_min":0,"x_max":0,"o":""},"ï":{"ha":358,"x_min":0,"x_max":0,"o":""},"ł":{"ha":358,"x_min":0,"x_max":0,"o":""},"ñ":{"ha":859,"x_min":0,"x_max":0,"o":""},"ò":{"ha":840,"x_min":0,"x_max":0,"o":""},"ó":{"ha":840,"x_min":0,"x_max":0,"o":""},"ô":{"ha":840,"x_min":0,"x_max":0,"o":""},"õ":{"ha":840,"x_min":0,"x_max":0,"o":""},"ö":{"ha":840,"x_min":0,"x_max":0,"o":""},"ø":{"ha":840,"x_min":0,"x_max":0,"o":""},"œ":{"ha":1314,"x_min":0,"x_max":0,"o":""},"š":{"ha":665,"x_min":0,"x_max":0,"o":""},"ù":{"ha":859,"x_min":0,"x_max":0,"o":""},"ú":{"ha":859,"x_min":0,"x_max":0,"o":""},"û":{"ha":859,"x_min":0,"x_max":0,"o":""},"ü":{"ha":859,"x_min":0,"x_max":0,"o":""},"ý":{"ha":708,"x_min":0,"x_max":0,"o":""},"ÿ":{"ha":708,"x_min":0,"x_max":0,"o":""},"ž":{"ha":653,"x_min":0,"x_max":0,"o":""},"≥":{"ha":692,"x_min":109,"x_max":583,"o":"m 243 305 q 232 300 239 300 q 220 305 225 300 l 121 400 q 115 412 115 406 q 121 423 115 418 l 328 631 l 121 840 q 115 851 115 845 q 121 863 115 857 l 220 958 q 231 964 225 964 q 243 958 237 964 l 557 643 q 557 620 569 631 l 243 305 m 125 41 q 113 45 117 41 q 109 57 109 50 l 109 201 q 113 213 109 208 q 125 217 117 217 l 567 217 q 583 201 583 217 l 583 57 q 579 45 583 50 q 567 41 574 41 l 125 41 z "},"≤":{"ha":699,"x_min":109,"x_max":590,"o":"m 114 620 q 109 631 109 625 q 114 643 109 637 q 154 683 129 658 q 209 738 179 708 q 271 801 239 768 q 334 863 304 833 q 389 918 363 893 q 429 958 414 943 q 440 964 434 964 q 452 958 446 964 q 473 938 459 951 q 501 910 486 925 q 530 883 516 896 q 551 863 544 869 q 556 851 556 857 q 551 840 556 845 q 525 813 541 830 q 488 777 508 797 q 447 735 469 757 q 406 694 425 714 q 369 657 386 674 q 343 631 353 641 l 551 423 q 551 400 562 412 l 451 305 q 439 300 446 300 q 428 305 433 300 l 114 620 m 132 41 q 120 45 124 41 q 115 57 115 50 l 115 201 q 120 213 115 208 q 132 217 124 217 l 574 217 q 590 201 590 217 l 590 57 q 586 45 590 50 q 574 41 581 41 l 132 41 z "},"∫":{"ha":645,"x_min":81,"x_max":564,"o":"m 547 1056 q 446 992 480 1041 q 411 863 411 943 l 411 153 q 332 -111 411 -16 q 98 -226 252 -207 q 86 -223 90 -227 q 81 -212 81 -219 l 81 -72 q 98 -53 81 -56 q 199 12 165 -37 q 234 141 234 60 l 234 850 q 313 1115 234 1019 q 547 1230 393 1211 q 559 1227 555 1231 q 564 1215 564 1223 l 564 1076 q 547 1056 564 1060 z "},"a":{"ha":859,"x_min":54,"x_max":808,"o":"m 68 -1 q 57 3 60 -1 q 56 15 54 7 l 301 977 q 321 992 306 992 l 538 992 q 558 977 553 992 l 804 15 q 791 -1 808 -1 l 648 -1 q 627 15 632 -1 l 568 248 l 291 248 l 232 15 q 212 -1 227 -1 l 68 -1 m 335 420 l 524 420 l 430 789 l 335 420 z "},"b":{"ha":852,"x_min":109,"x_max":757,"o":"m 416 991 q 635 926 560 991 q 709 742 709 861 l 709 707 q 696 615 709 658 q 659 538 682 573 q 731 444 705 500 q 757 317 757 388 l 757 276 q 686 71 757 141 q 471 0 614 0 l 125 0 q 113 4 117 0 q 109 16 109 9 l 109 975 q 113 987 109 983 q 125 991 117 991 l 416 991 m 462 606 q 515 631 497 606 q 533 704 533 656 l 533 726 q 508 795 533 772 q 435 819 484 819 l 285 819 l 285 606 l 462 606 m 414 172 q 492 178 460 172 q 543 198 524 184 q 572 233 563 211 q 581 286 581 255 l 581 321 q 572 374 581 353 q 543 409 563 396 q 492 428 524 422 q 414 434 460 434 l 285 434 l 285 172 l 414 172 z "},"c":{"ha":857,"x_min":95,"x_max":762,"o":"m 602 630 q 590 633 595 629 q 586 644 586 637 l 586 703 q 578 763 586 739 q 552 804 570 788 q 505 826 534 819 q 435 833 477 833 q 352 826 384 833 q 302 801 320 819 q 278 749 284 782 q 271 662 271 715 l 271 320 q 279 241 271 272 q 304 191 286 210 q 355 166 323 173 q 435 159 387 159 q 507 165 478 159 q 553 185 536 171 q 578 222 571 199 q 586 279 586 245 l 586 340 q 590 352 586 348 q 602 357 595 357 l 746 357 q 762 340 762 357 l 762 295 q 680 64 762 142 q 435 -14 597 -14 q 292 5 355 -14 q 185 59 229 24 q 118 145 141 94 q 95 261 95 196 l 95 724 q 181 934 95 863 q 435 1005 267 1005 q 680 925 597 1005 q 762 690 762 846 l 762 663 q 758 650 762 655 q 746 645 753 646 l 602 630 z "},"d":{"ha":861,"x_min":109,"x_max":766,"o":"m 125 0 q 113 4 117 0 q 109 16 109 9 l 109 975 q 113 987 109 983 q 125 991 117 991 l 507 991 q 701 924 635 991 q 766 724 766 857 l 766 261 q 701 66 766 132 q 507 0 635 0 l 125 0 m 590 309 l 590 680 q 586 754 590 726 q 568 796 582 781 q 529 815 555 810 q 461 819 504 819 l 285 819 l 285 172 l 461 172 q 530 177 504 172 q 569 195 555 181 q 586 237 582 210 q 590 309 590 264 z "},"e":{"ha":770,"x_min":109,"x_max":675,"o":"m 125 0 q 113 4 117 0 q 109 16 109 9 l 109 975 q 113 987 109 983 q 125 991 117 991 l 659 991 q 670 987 666 991 q 675 975 675 983 l 675 836 q 670 824 675 828 q 659 819 666 819 l 285 819 l 285 606 l 555 606 q 567 602 563 606 q 572 590 572 597 l 572 450 q 567 438 572 443 q 555 434 563 434 l 285 434 l 285 172 l 659 172 q 670 168 666 172 q 675 156 675 163 l 675 16 q 670 4 675 9 q 659 0 666 0 l 125 0 z "},"f":{"ha":781,"x_min":109,"x_max":700,"o":"m 125 0 q 113 4 117 0 q 109 16 109 9 l 109 975 q 113 987 109 983 q 125 991 117 991 l 684 991 q 695 987 691 991 q 700 975 700 983 l 700 836 q 695 824 700 828 q 684 819 691 819 l 285 819 l 285 572 l 616 572 q 628 568 623 572 q 632 556 632 564 l 632 416 q 628 405 632 409 q 616 400 623 400 l 285 400 l 285 16 q 280 4 285 9 q 269 0 276 0 l 125 0 z "},"g":{"ha":871,"x_min":95,"x_max":776,"o":"m 616 630 q 604 633 608 629 q 600 644 600 637 l 600 703 q 560 800 600 767 q 442 833 520 833 q 359 823 392 833 q 306 791 326 813 q 279 734 287 769 q 271 648 271 699 l 271 340 q 279 255 271 290 q 306 199 287 220 q 359 168 326 178 q 442 159 392 159 q 518 168 488 159 q 566 196 548 177 q 592 244 585 215 q 600 314 600 273 l 600 328 l 473 328 q 461 333 466 328 q 457 345 457 337 l 457 477 q 461 489 457 485 q 473 494 466 494 l 760 494 q 771 489 767 494 q 776 477 776 485 l 776 290 q 754 165 776 221 q 691 69 733 109 q 587 8 649 29 q 442 -14 524 -14 q 292 7 357 -14 q 183 66 227 28 q 117 159 140 104 q 95 281 95 214 l 95 711 q 117 835 95 780 q 183 927 139 890 q 292 985 227 965 q 442 1005 357 1005 q 691 925 607 1005 q 776 690 776 846 l 776 663 q 771 650 776 655 q 760 645 767 646 l 616 630 z "},"h":{"ha":895,"x_min":109,"x_max":787,"o":"m 125 0 q 109 16 109 0 l 109 975 q 125 991 109 991 l 269 991 q 285 975 285 991 l 285 599 l 610 599 l 610 975 q 627 991 610 991 l 770 991 q 787 975 787 991 l 787 16 q 770 0 787 0 l 627 0 q 610 16 610 0 l 610 427 l 285 427 l 285 16 q 269 0 285 0 l 125 0 z "},"i":{"ha":722,"x_min":95,"x_max":627,"o":"m 111 819 q 99 824 104 819 q 95 836 95 828 l 95 975 q 99 987 95 983 q 111 991 104 991 l 610 991 q 627 975 627 991 l 627 836 q 622 824 627 828 q 610 819 618 819 l 449 819 l 449 172 l 610 172 q 627 156 627 172 l 627 16 q 622 4 627 9 q 610 0 618 0 l 111 0 q 99 4 104 0 q 95 16 95 9 l 95 156 q 99 168 95 163 q 111 172 104 172 l 273 172 l 273 819 l 111 819 z "},"j":{"ha":790,"x_min":67,"x_max":695,"o":"m 218 302 q 236 290 234 306 q 275 200 243 228 q 370 172 307 172 l 383 172 q 487 215 454 172 q 519 351 519 258 l 519 819 l 240 819 q 228 824 233 819 q 224 836 224 828 l 224 975 q 228 987 224 983 q 240 991 233 991 l 679 991 q 691 987 686 991 q 695 975 695 983 l 695 370 q 619 91 695 182 q 383 0 543 0 l 370 0 q 156 64 232 0 q 68 252 80 127 q 72 264 67 259 q 83 271 76 270 l 218 302 z "},"k":{"ha":829,"x_min":109,"x_max":749,"o":"m 285 579 l 361 579 l 544 980 q 561 991 549 991 l 716 991 q 729 986 726 991 q 729 972 733 981 l 515 500 l 745 20 q 745 5 749 11 q 732 0 742 0 l 582 0 q 572 3 576 0 q 564 11 567 6 l 375 407 l 285 407 l 285 16 q 280 4 285 9 q 269 0 276 0 l 125 0 q 113 4 117 0 q 109 16 109 9 l 109 975 q 113 987 109 983 q 125 991 117 991 l 269 991 q 285 975 285 991 l 285 579 z "},"l":{"ha":736,"x_min":109,"x_max":661,"o":"m 125 0 q 109 16 109 0 l 109 975 q 125 991 109 991 l 269 991 q 285 975 285 991 l 285 172 l 645 172 q 661 156 661 172 l 661 16 q 645 0 661 0 l 125 0 z "},"m":{"ha":970,"x_min":109,"x_max":862,"o":"m 318 991 q 340 977 334 991 l 486 567 l 631 977 q 640 987 634 983 q 653 991 646 991 l 846 991 q 862 975 862 991 l 862 16 q 858 4 862 9 q 846 0 853 0 l 702 0 q 690 4 694 0 q 686 16 686 9 l 686 693 l 560 320 q 538 304 555 304 l 433 304 q 419 309 425 304 q 411 320 414 313 l 285 695 l 285 16 q 280 4 285 9 q 269 0 276 0 l 125 0 q 113 4 117 0 q 109 16 109 9 l 109 975 q 113 987 109 983 q 125 991 117 991 l 318 991 z "},"n":{"ha":921,"x_min":109,"x_max":812,"o":"m 125 0 q 113 4 117 0 q 109 16 109 9 l 109 975 q 113 987 109 983 q 125 991 117 991 l 285 991 l 636 361 l 636 975 q 641 987 636 983 q 652 991 645 991 l 796 991 q 808 987 804 991 q 812 975 812 983 l 812 16 q 808 4 812 9 q 796 0 804 0 l 636 0 l 285 628 l 285 16 q 280 4 285 9 q 269 0 276 0 l 125 0 z "},"o":{"ha":871,"x_min":95,"x_max":776,"o":"m 95 724 q 117 843 95 791 q 182 931 139 895 q 289 986 226 967 q 435 1005 353 1005 q 577 986 514 1005 q 684 932 640 968 q 752 844 728 896 q 776 724 776 791 l 776 261 q 752 145 776 196 q 684 58 728 94 q 577 5 640 23 q 435 -14 514 -14 q 289 5 353 -14 q 182 59 225 24 q 117 145 139 94 q 95 261 95 196 l 95 724 m 271 320 q 278 238 271 270 q 302 189 284 207 q 352 165 320 172 q 435 159 385 159 q 518 165 486 159 q 569 189 551 172 q 593 238 587 207 q 600 320 600 270 l 600 662 q 593 748 600 715 q 568 800 586 781 q 518 826 550 819 q 435 833 486 833 q 353 826 385 833 q 303 800 321 819 q 278 748 285 781 q 271 662 271 715 l 271 320 z "},"p":{"ha":831,"x_min":109,"x_max":736,"o":"m 285 16 q 280 4 285 9 q 269 0 276 0 l 125 0 q 113 4 117 0 q 109 16 109 9 l 109 975 q 113 987 109 983 q 125 991 117 991 l 525 991 q 683 940 629 991 q 736 789 736 889 l 736 490 q 683 315 736 374 q 525 255 629 255 l 285 255 l 285 16 m 285 819 l 285 427 l 496 427 q 546 444 531 427 q 560 490 560 460 l 560 757 q 546 803 560 787 q 496 819 531 819 l 285 819 z "},"q":{"ha":871,"x_min":95,"x_max":776,"o":"m 501 -11 q 469 -13 486 -12 q 435 -14 453 -14 q 280 2 345 -14 q 174 52 215 18 q 114 137 133 85 q 95 261 95 189 l 95 724 q 114 851 95 798 q 174 938 133 904 q 280 989 215 972 q 435 1005 345 1005 q 587 989 523 1005 q 693 938 651 972 q 755 851 735 904 q 776 724 776 798 l 776 261 q 745 114 776 172 q 650 25 714 56 l 679 -36 q 680 -49 682 -43 q 671 -58 678 -55 l 567 -109 q 559 -111 563 -111 q 545 -101 550 -111 l 501 -11 m 271 320 q 276 232 271 264 q 297 184 280 200 q 347 163 314 168 q 435 159 379 159 q 524 163 492 159 q 574 184 557 168 q 595 232 591 200 q 600 320 600 264 l 600 662 q 595 753 600 720 q 573 805 590 787 q 524 828 556 823 q 435 833 491 833 q 347 828 380 833 q 298 805 315 823 q 276 753 281 787 q 271 662 271 720 l 271 320 z "},"r":{"ha":831,"x_min":109,"x_max":736,"o":"m 557 -1 q 535 14 542 -1 l 412 330 l 285 330 l 285 16 q 280 4 285 9 q 269 0 276 0 l 125 0 q 113 4 117 0 q 109 16 109 9 l 109 975 q 113 987 109 983 q 125 991 117 991 l 498 991 q 611 980 565 991 q 684 942 656 968 q 724 871 712 915 q 736 762 736 827 l 736 565 q 729 475 736 513 q 704 409 721 436 q 660 364 687 381 q 594 338 633 347 l 718 20 q 718 5 722 10 q 705 -1 714 -1 l 557 -1 m 285 819 l 285 502 l 469 502 q 537 525 513 502 q 560 591 560 547 l 560 730 q 537 797 560 774 q 469 819 513 819 l 285 819 z "},"s":{"ha":830,"x_min":81,"x_max":749,"o":"m 552 751 q 518 809 552 787 q 414 832 484 832 q 347 825 374 832 q 303 805 319 818 q 279 773 286 791 q 271 733 271 755 q 297 669 271 696 q 382 617 323 641 l 522 562 q 623 510 580 538 q 694 447 666 481 q 735 371 722 412 q 749 279 749 330 q 664 60 749 134 q 415 -14 580 -14 q 166 56 250 -14 q 81 261 81 125 l 81 283 q 86 295 81 290 q 98 299 90 299 l 241 299 q 253 295 249 299 q 258 283 258 290 l 258 261 q 414 159 258 159 q 532 185 492 159 q 572 262 572 212 q 566 308 572 288 q 546 343 560 328 q 507 373 531 359 q 446 402 482 387 l 302 460 q 148 568 200 500 q 95 724 95 635 q 176 934 95 863 q 415 1005 257 1005 q 649 941 570 1005 q 728 751 728 877 l 728 735 q 724 723 728 728 q 712 719 720 719 l 568 719 q 556 723 561 719 q 552 735 552 728 l 552 751 z "},"t":{"ha":749,"x_min":68,"x_max":681,"o":"m 302 0 q 291 4 295 0 q 286 16 286 9 l 286 819 l 84 819 q 72 824 77 819 q 68 836 68 828 l 68 975 q 72 987 68 983 q 84 991 77 991 l 665 991 q 681 975 681 991 l 681 836 q 676 824 681 828 q 665 819 672 819 l 463 819 l 463 16 q 458 4 463 9 q 446 0 454 0 l 302 0 z "},"u":{"ha":875,"x_min":95,"x_max":780,"o":"m 764 991 q 775 987 771 991 q 780 975 780 983 l 780 361 q 757 191 780 262 q 691 74 734 119 q 587 7 648 28 q 448 -14 525 -14 l 427 -14 q 289 8 351 -14 q 184 76 228 30 q 118 192 141 121 q 95 361 95 263 l 95 975 q 99 987 95 983 q 111 991 104 991 l 255 991 q 267 987 262 991 q 271 975 271 983 l 271 402 q 278 295 271 340 q 301 219 284 249 q 349 174 319 189 q 427 159 379 159 l 448 159 q 528 173 498 159 q 576 216 559 186 q 598 292 593 246 q 604 402 604 338 l 604 975 q 608 987 604 983 q 620 991 612 991 l 764 991 z "},"v":{"ha":813,"x_min":54,"x_max":762,"o":"m 55 977 q 57 988 54 984 q 68 992 60 992 l 210 992 q 229 977 226 992 l 407 201 l 584 977 q 591 988 585 984 q 604 992 596 992 l 745 992 q 758 977 762 992 l 538 15 q 519 -1 535 -1 l 295 -1 q 282 3 288 -1 q 275 15 277 7 l 55 977 z "},"w":{"ha":1170,"x_min":54,"x_max":1118,"o":"m 507 977 q 513 988 508 984 q 526 992 519 992 l 644 992 q 664 977 661 992 l 800 359 l 941 977 q 947 988 942 984 q 960 992 953 992 l 1102 992 q 1115 977 1118 992 l 895 15 q 879 -1 892 1 l 722 -1 q 709 3 715 -1 q 703 15 704 7 l 585 555 l 467 15 q 448 -1 464 -1 l 290 -1 l 290 0 q 275 15 277 2 l 55 977 q 57 988 54 984 q 68 992 60 992 l 210 992 q 229 977 226 992 l 370 360 l 507 977 z "},"x":{"ha":831,"x_min":66,"x_max":765,"o":"m 79 -1 q 69 3 71 -1 q 70 14 66 7 l 323 499 l 73 978 q 72 988 70 985 q 82 992 75 992 l 234 992 q 258 978 250 992 l 416 675 l 573 978 q 583 988 576 985 q 597 992 589 992 l 749 992 q 758 978 765 992 l 508 499 l 761 14 q 762 3 764 7 q 752 -1 760 -1 l 600 -1 q 586 3 593 -1 q 576 14 580 7 l 416 322 l 254 14 q 244 3 251 7 q 231 -1 238 -1 l 79 -1 z "},"y":{"ha":773,"x_min":40,"x_max":736,"o":"m 315 0 q 303 4 307 0 q 298 16 298 9 l 298 387 l 43 977 q 43 988 40 984 q 53 992 45 992 l 201 992 q 224 977 218 992 l 387 587 l 549 977 q 558 988 552 984 q 572 992 564 992 l 720 992 q 730 977 736 992 l 475 387 l 475 16 q 470 4 475 9 q 458 0 466 0 l 315 0 z "},"z":{"ha":856,"x_min":109,"x_max":747,"o":"m 747 16 q 743 4 747 9 q 731 0 739 0 l 125 0 q 113 4 117 0 q 109 16 109 9 l 109 172 l 542 819 l 125 819 q 113 824 117 819 q 109 836 109 828 l 109 975 q 113 987 109 983 q 125 991 117 991 l 731 991 q 747 975 747 991 l 747 819 l 315 172 l 731 172 q 747 156 747 172 l 747 16 z "}}}
